<svg width="1301" height="214" viewBox="0 0 1301 214" fill="none" xmlns="http://www.w3.org/2000/svg">
<rect x="1" y="1" width="189" height="170" fill="#FFFCFC" stroke="black" stroke-width="2"/>
<path d="M18 82.2326V2H190V138.545L177 152H74.5L18 82.2326Z" fill="#73D2F0" stroke="black" stroke-width="2"/>
<circle cx="115" cy="65" r="45" fill="#FFFAFA" stroke="black" stroke-width="2"/>
<path d="M129 65C129 72.1469 122.989 78 115.5 78C108.011 78 102 72.1469 102 65C102 57.8531 108.011 52 115.5 52C122.989 52 129 57.8531 129 65Z" fill="#0D0D0D" stroke="black" stroke-width="2"/>
<path d="M282.742 78.8809H299.07C309.669 78.8809 316.759 77.6992 320.34 75.3359C323.921 72.9727 325.711 68.7832 325.711 62.7676C325.711 56.6803 323.992 52.4551 320.555 50.0918C317.117 47.7285 309.956 46.5469 299.07 46.5469H282.742V78.8809ZM231.932 166V7.76758H297.029C311.424 7.76758 322.811 8.62695 331.189 10.3457C339.64 11.9928 346.694 14.6784 352.352 18.4023C359.656 23.3438 365.099 29.4668 368.68 36.7715C372.26 44.0762 374.051 52.7415 374.051 62.7676C374.051 80.4564 368.823 94.0273 358.367 103.48C347.911 112.862 332.837 117.553 313.143 117.553H282.742V166H231.932ZM421.755 94.457H463.112C462.611 87.224 460.606 81.8171 457.096 78.2363C453.587 74.584 448.539 72.7578 441.95 72.7578C435.863 72.7578 431.029 74.6914 427.448 78.5586C423.939 82.3542 422.041 87.6536 421.755 94.457ZM460.641 131.41H505.114C501.891 144.158 494.802 153.826 483.845 160.414C472.959 166.931 458.565 170.189 440.661 170.189C420.609 170.189 404.675 164.639 392.858 153.539C381.113 142.367 375.241 127.364 375.241 108.529C375.241 88.9069 381.257 73.4382 393.288 62.123C405.319 50.7363 421.683 45.043 442.38 45.043C463.148 45.043 479.404 51.2376 491.149 63.627C502.966 75.9447 508.874 93.0605 508.874 114.975V117.768L421.755 117.875C421.97 125.323 423.939 131.088 427.663 135.17C431.387 139.18 436.579 141.186 443.239 141.186C447.751 141.186 451.511 140.362 454.518 138.715C457.526 136.996 459.567 134.561 460.641 131.41ZM519.195 166V49.2324H561.412V66.3125C566.854 59.5091 572.906 54.4603 579.566 51.166C586.298 47.8001 593.889 46.1172 602.339 46.1172C609.429 46.1172 615.767 47.2988 621.353 49.6621C626.939 52.0254 631.666 55.5345 635.533 60.1895C639.042 64.4147 641.513 69.571 642.945 75.6582C644.449 81.6738 645.201 91.5566 645.201 105.307V166H598.795V105.521C598.795 96.6413 597.613 90.554 595.25 87.2598C592.886 83.8939 588.804 82.2109 583.004 82.2109C577.131 82.2109 572.763 84.1445 569.898 88.0117C567.033 91.8789 565.601 97.7871 565.601 105.736V166H519.195Z" fill="#334D7E"/>
<path d="M701.498 106.811C701.498 116.192 703.038 123.174 706.118 127.758C709.197 132.27 713.888 134.525 720.19 134.525C726.85 134.525 731.756 132.305 734.907 127.865C738.129 123.425 739.741 116.479 739.741 107.025C739.741 98.5749 738.022 92.0221 734.584 87.3672C731.218 82.7122 726.42 80.3848 720.19 80.3848C713.888 80.3848 709.197 82.6048 706.118 87.0449C703.038 91.4134 701.498 98.002 701.498 106.811ZM662.934 178.568H708.911C709.483 181.361 710.808 183.367 712.885 184.584C715.034 185.801 718.256 186.41 722.553 186.41C729.357 186.41 733.94 184.906 736.303 181.898C738.738 178.891 739.955 172.266 739.955 162.025V155.688C736.017 159.483 731.326 162.348 725.883 164.281C720.512 166.143 714.353 167.074 707.407 167.074C691.651 167.074 679.011 161.703 669.487 150.961C660.034 140.147 655.307 125.788 655.307 107.885C655.307 89.0501 659.819 74.0469 668.842 62.875C677.937 51.7031 690.04 46.1172 705.151 46.1172C713.601 46.1172 720.942 47.6211 727.172 50.6289C733.474 53.5651 738.917 58.1484 743.5 64.3789V49.2324H784.643V156.977C784.643 177.315 779.666 191.745 769.711 200.268C759.757 208.79 742.963 213.051 719.33 213.051C702.931 213.051 689.825 210.043 680.014 204.027C670.203 198.012 664.51 189.525 662.934 178.568ZM801.087 166V49.2324H843.948V70.502C847.028 62.0514 851.432 55.8926 857.161 52.0254C862.962 48.0866 870.661 46.1172 880.257 46.1172H884.446V92.416C882.728 92.2728 881.081 92.1654 879.505 92.0938C877.93 91.9505 876.426 91.8789 874.993 91.8789C865.612 91.8789 858.701 93.9915 854.261 98.2168C849.892 102.442 847.708 109.066 847.708 118.09V166H801.087ZM971.467 113.9C967.027 115.619 961.118 117.445 953.742 119.379C942.141 122.458 936.34 126.576 936.34 131.732C936.34 135.027 937.486 137.605 939.777 139.467C942.069 141.329 945.327 142.26 949.553 142.26C957.287 142.26 962.909 140.469 966.418 136.889C969.999 133.308 971.789 127.615 971.789 119.809C971.789 118.161 971.753 116.944 971.682 116.156C971.682 115.297 971.61 114.545 971.467 113.9ZM975.764 166L972.863 154.828C966.919 160.056 960.51 163.923 953.635 166.43C946.76 168.936 939.025 170.189 930.432 170.189C917.255 170.189 907.049 166.967 899.816 160.521C892.655 154.005 889.074 144.838 889.074 133.021C889.074 121.492 892.619 112.969 899.709 107.455C906.799 101.941 920.191 97.9303 939.885 95.4238C942.391 95.0658 945.757 94.6719 949.982 94.2422C964.663 92.6667 972.004 88.8711 972.004 82.8555C972.004 79.4896 970.643 77.0547 967.922 75.5508C965.272 73.9753 961.047 73.1875 955.246 73.1875C950.448 73.1875 946.76 74.1543 944.182 76.0879C941.604 77.9499 940.1 80.8503 939.67 84.7891H894.338C894.553 71.6836 899.924 61.8008 910.451 55.1406C920.979 48.4089 936.447 45.043 956.857 45.043C966.454 45.043 975.298 45.9382 983.391 47.7285C991.555 49.5189 997.893 51.918 1002.4 54.9258C1007.92 58.6497 1011.79 62.875 1014.01 67.6016C1016.23 72.2565 1017.34 78.9525 1017.34 87.6895V152.787C1017.34 154.936 1017.77 156.869 1018.62 158.588C1019.48 160.235 1020.74 161.596 1022.38 162.67V166H975.764ZM1039.9 166V75.5508H1025.4V49.2324H1039.9V41.9277C1039.9 28.8939 1043.13 19.2975 1049.57 13.1387C1056.09 6.97982 1066.19 3.90039 1079.86 3.90039H1105.86V33.1191C1105.29 33.1191 1104.46 33.0833 1103.39 33.0117C1102.32 32.9401 1101.53 32.9043 1101.03 32.9043C1095.37 32.9043 1091.43 33.8711 1089.21 35.8047C1086.99 37.6667 1085.88 40.9609 1085.88 45.6875C1085.88 46.0456 1085.92 46.6185 1085.99 47.4062C1086.06 48.1224 1086.09 48.7311 1086.09 49.2324H1105.86V75.5508H1086.09V166H1039.9ZM1112.21 37.3086V3.90039H1159.04V37.3086H1112.21ZM1112.21 166V49.2324H1159.04V166H1112.21ZM1254.55 120.453H1300.96C1299.95 135.85 1293.79 147.989 1282.48 156.869C1271.24 165.749 1256.27 170.189 1237.58 170.189C1216.88 170.189 1200.52 164.568 1188.48 153.324C1176.45 142.081 1170.44 126.791 1170.44 107.455C1170.44 88.1191 1176.38 72.901 1188.27 61.8008C1200.16 50.6289 1216.45 45.043 1237.15 45.043C1255.91 45.043 1271.02 49.4473 1282.48 58.2559C1293.94 66.9928 1299.95 78.7734 1300.53 93.5977H1254.12C1253.62 88.0833 1251.97 84.0013 1249.18 81.3516C1246.39 78.7018 1242.3 77.377 1236.93 77.377C1230.2 77.377 1225.26 79.8118 1222.11 84.6816C1218.96 89.4798 1217.38 97.071 1217.38 107.455C1217.38 117.982 1218.89 125.681 1221.89 130.551C1224.97 135.421 1229.84 137.855 1236.5 137.855C1241.87 137.855 1246.06 136.387 1249.07 133.451C1252.15 130.515 1253.98 126.182 1254.55 120.453Z" fill="#0BA8D5"/>
</svg>
